<?xml version="1.0" encoding="utf-8"?>
<!-- Generator: Adobe Illustrator 24.0.1, SVG Export Plug-In . SVG Version: 6.00 Build 0)  -->
<svg version="1.1" id="Layer_1" xmlns="http://www.w3.org/2000/svg" xmlns:xlink="http://www.w3.org/1999/xlink" x="0px" y="0px"
	 viewBox="0 0 1253.9 301.1" style="enable-background:new 0 0 1253.9 301.1;" xml:space="preserve">
<style type="text/css">
	.st0{fill:#FFFFFF;}
	.st1{fill:#21AA4B;}
	.st2{fill:#FFCE04;}
</style>
<g>
	<g>
		<path class="st0" d="M45.1,200c0,6.3-2.2,11.6-6.6,16c-4.4,4.4-9.7,6.6-16,6.6s-11.6-2.2-16-6.6c-4.4-4.4-6.6-9.7-6.6-16V22.5
			c0-6.3,2.2-11.6,6.6-16C11,2.2,16.3,0,22.5,0s11.6,2.2,16,6.6c4.4,4.4,6.6,9.7,6.6,16V200z"/>
		<path class="st0" d="M406.1,200c0,6.3-2.2,11.6-6.7,16c-4.4,4.4-9.7,6.6-15.8,6.6c-9.8,0-16.7-4.5-20.7-13.5
			c-14.6,9-30.5,13.5-47.7,13.5c-25,0-46.4-8.9-64.2-26.6c-17.7-17.7-26.6-39.1-26.6-64.2c0-25.1,8.9-46.6,26.6-64.3
			c17.7-17.7,39.1-26.6,64.2-26.6c25.1,0,46.6,8.9,64.3,26.6c17.7,17.7,26.6,39.2,26.6,64.3V200z M315.2,85.9
			c-12.6,0-23.4,4.5-32.2,13.5c-9,9-13.5,19.8-13.5,32.4c0,12.6,4.5,23.4,13.5,32.4c8.9,8.9,19.6,13.3,32.2,13.3
			c12.6,0,23.4-4.4,32.4-13.3c9-9,13.5-19.8,13.5-32.4c0-12.6-4.5-23.4-13.5-32.4C338.6,90.4,327.8,85.9,315.2,85.9z"/>
		<path class="st0" d="M482.5,200c0,6.3-2.2,11.6-6.6,16c-4.4,4.4-9.7,6.6-16,6.6c-6.3,0-11.6-2.2-16-6.6c-4.4-4.4-6.6-9.7-6.6-16
			V22.5c0-6.3,2.2-11.6,6.6-16c4.4-4.4,9.7-6.6,16-6.6c6.3,0,11.6,2.2,16,6.6c4.4,4.4,6.6,9.7,6.6,16V200z"/>
		<path class="st0" d="M512.9,22.5c0-6.3,2.2-11.6,6.6-16c4.4-4.4,9.7-6.6,16-6.6c6.3,0,11.6,2.2,16,6.6c4.4,4.4,6.6,9.7,6.6,16
			v30.7c14.1-8.2,29.3-12.4,45.7-12.4c25.1,0,46.6,8.9,64.3,26.6c17.7,17.7,26.6,39.2,26.6,64.3c0,25-8.9,46.4-26.6,64.2
			c-17.7,17.7-39.2,26.6-64.3,26.6c-25,0-46.4-8.9-64.2-26.6c-17.7-17.7-26.6-39.1-26.6-64.2V22.5z M603.6,177.5
			c12.6,0,23.4-4.4,32.4-13.3c9-9,13.5-19.8,13.5-32.4c0-12.6-4.5-23.4-13.5-32.4c-9-9-19.8-13.5-32.4-13.5
			c-12.6,0-23.4,4.5-32.2,13.5c-9,9-13.5,19.8-13.5,32.4c0,12.6,4.5,23.4,13.5,32.4C580.3,173,591,177.5,603.6,177.5z"/>
		<path class="st0" d="M852.5,63.4c0-6.3,2.2-11.6,6.6-16c4.4-4.4,9.7-6.6,16-6.6c6.3,0,11.6,2.2,16,6.6c4.4,4.4,6.6,9.7,6.6,16v147
			c0,25-8.9,46.4-26.6,64.2c-17.7,17.7-39.1,26.6-64.2,26.6c-14.6,0-28.5-3.3-41.6-10c-13-6.8-23.8-16.1-32.4-28
			c-3.5-5-4.9-10.6-3.9-16.7c1-6.2,4.1-11,9.2-14.6c5-3.7,10.6-5,16.7-3.9c6.2,0.9,11,4,14.6,9.1c4.4,6,9.9,10.7,16.4,14.1
			c6.5,3.3,13.5,5,21,5c12.6,0,23.4-4.5,32.2-13.5c9-8.9,13.5-19.7,13.5-32.4c-14.1,8.2-29.3,12.4-45.7,12.4
			c-25.1,0-46.6-8.9-64.3-26.6c-17.7-17.7-26.6-39.2-26.6-64.3V63.4c0-6.3,2.2-11.6,6.6-16c4.4-4.4,9.7-6.6,16-6.6
			c6.3,0,11.6,2.2,16,6.6c4.4,4.4,6.6,9.7,6.6,16v68.2c0,12.6,4.5,23.4,13.5,32.4c8.9,9,19.7,13.5,32.4,13.5
			c12.6,0,23.4-4.5,32.2-13.5c9-9,13.5-19.8,13.5-32.4V63.4z"/>
		<path class="st0" d="M922.6,20c0-5.5,1.9-10.3,5.8-14.2c4-3.9,8.7-5.8,14.2-5.8c5.5,0,10.2,1.9,14.1,5.8c4,4,5.9,8.7,5.9,14.2
			v28.6h71.4c5.5,0,10.3,1.9,14.2,5.8c3.9,4,5.8,8.7,5.8,14.2c0,5.5-1.9,10.3-5.8,14.2c-4,3.9-8.7,5.8-14.2,5.8h-71.4v63.5
			c0,8.2,2.9,15.3,8.8,21.3c5.9,5.8,13,8.8,21.3,8.8c6.3,0,11.9-1.7,17.1-5.2s8.8-8.1,11.1-13.9c2-5.1,5.5-8.8,10.6-11.1
			c5-2.2,10.1-2.3,15.3-0.3c5.1,2.1,8.8,5.6,11.1,10.6c2.2,5.1,2.3,10.2,0.3,15.3c-5.3,13.5-14,24.3-26,32.6
			c-11.9,8.1-25.1,12.2-39.6,12.2c-19.4,0-35.9-6.8-49.6-20.5c-13.7-13.7-20.5-30.3-20.5-49.8V20z"/>
		<path class="st0" d="M1094.7,85.9c-6.3,0-11.6-2.2-16-6.6s-6.6-9.7-6.6-16c0-6.2,2.2-11.4,6.6-15.8c4.4-4.5,9.7-6.7,16-6.7H1212
			c7.3,0,14,2.1,20.2,6.3c5.9,4,10.4,9.4,13.3,16.3c2.9,7,3.7,14.1,2.2,21.3c-1.7,8.2-5.8,14.9-12.4,20l-95,72.8h91.1
			c6.2,0,11.4,2.2,15.8,6.6c4.5,4.4,6.7,9.7,6.7,16s-2.2,11.6-6.7,16c-4.4,4.4-9.7,6.6-15.8,6.6H1114c-7.2,0-13.9-2-20-6.1
			c-6.1-4.1-10.5-9.5-13.3-16.3c-2.8-7.1-3.5-14.2-2.2-21.3c1.6-8.3,5.7-15,12.4-20l94.8-72.9H1094.7z"/>
	</g>
	<circle class="st1" cx="603.5" cy="133" r="26.8"/>
	<circle class="st2" cx="314.5" cy="133" r="26.8"/>
	<path class="st0" d="M199.1,151.8c-5.2-2-10.3-1.9-15.3,0.3c-5.1,2.3-8.7,6-10.6,11.1c-2.3,5.8-6,10.5-11.1,13.9
		c-5.1,3.4-10.8,5.2-17.1,5.2c-8.2,0-15.3-2.9-21.3-8.8c-5.8-5.9-8.8-13-8.8-21.3V88.7h39.7v28L215.5,68l-60.9-48.7v29.3h-39.7V20
		c0-5.5-2-10.3-5.9-14.2C105.1,1.9,100.4,0,94.8,0c-5.5,0-10.3,1.9-14.2,5.8c-3.9,4-5.8,8.7-5.8,14.2v132.2
		c0,19.5,6.8,36.1,20.5,49.8c13.7,13.7,30.2,20.5,49.6,20.5c14.5,0,27.7-4.1,39.6-12.2c12-8.2,20.7-19.1,26-32.6
		c2-5.1,1.9-10.2-0.3-15.3C207.9,157.4,204.2,153.9,199.1,151.8z"/>
</g>
</svg>
